<svg width="557" height="314" viewBox="0 0 557 314" fill="none" xmlns="http://www.w3.org/2000/svg">
<rect width="557" height="313.312" fill="white" fill-opacity="0.5"/>
<path d="M206.247 80.3994C204.882 81.2796 204 82.671 204 83.9772C204 84.8291 205.308 88.9464 205.735 89.344C205.877 89.5143 205.991 89.7983 205.991 89.9971C205.991 90.4514 209.005 96.7836 209.688 97.749C209.972 98.1466 210.199 98.5441 210.228 98.6861C210.228 98.7997 210.854 99.9071 211.593 101.185C212.361 102.434 213.129 103.797 213.356 104.223C213.584 104.649 213.925 105.103 214.152 105.217C214.351 105.331 214.522 105.558 214.522 105.7C214.522 105.955 218.02 111.01 218.845 111.947C219.044 112.174 219.698 112.969 220.323 113.736C220.921 114.502 221.631 115.354 221.887 115.638C222.143 115.894 223.025 116.859 223.878 117.768L225.442 119.443L224.333 120.295C223.707 120.778 222.342 122.056 221.29 123.106C216.769 127.678 213.868 133.442 212.929 139.661C212.503 142.387 212.645 147.612 213.242 150.281C213.299 150.678 213.441 151.246 213.498 151.559C213.555 151.871 213.754 152.496 213.953 152.978C214.124 153.433 214.295 153.887 214.295 153.972C214.351 154.37 214.693 155.193 215.83 157.522C217.138 160.191 218.788 162.548 220.807 164.706C222.03 165.955 222.03 165.984 221.432 166.438C218.333 168.823 217.366 169.703 215.972 171.293C215.091 172.316 214.323 173.196 214.238 173.281C213.896 173.565 211.764 177.171 211.309 178.165C209.688 181.771 209.233 183.248 208.635 186.769C208.379 188.246 208.379 194.379 208.635 195.856C209.432 200.484 211.138 204.658 213.726 208.406C215.66 211.132 218.788 214.284 221.205 215.846C221.831 216.244 222.399 216.67 222.485 216.755C222.655 216.982 227.49 219.31 227.803 219.339C227.916 219.339 228.343 219.481 228.741 219.623C230.049 220.134 232.58 220.73 234.002 220.929C235.907 221.156 241.083 221.156 242.676 220.9C245.974 220.418 251.207 218.657 252.373 217.692C252.6 217.465 253.027 217.294 253.254 217.294C253.51 217.294 253.766 217.152 253.823 216.953C253.908 216.755 254.164 217.039 254.449 217.578C255.273 219.282 256.724 221.554 256.951 221.554C257.065 221.554 257.179 221.724 257.179 221.923C257.179 222.263 260.591 225.926 262.326 227.403C265.54 230.186 271.369 232.798 276.232 233.622C279.503 234.19 285.475 233.991 288.517 233.196C291.162 232.514 296.48 230.214 297.39 229.391C297.561 229.22 298.215 228.738 298.84 228.34C299.466 227.914 300.547 227.062 301.258 226.409C301.968 225.784 302.594 225.245 302.679 225.245C302.765 225.245 303.22 225.614 303.675 226.04C305.267 227.517 307.144 228.936 307.485 228.936C307.656 228.936 307.798 229.05 307.798 229.164C307.798 229.533 313.457 232.23 315.334 232.77C319.771 234.019 325.401 234.36 329.411 233.593C331.857 233.139 336.037 231.804 336.179 231.464C336.236 231.322 336.464 231.208 336.72 231.208C337.089 231.208 338.71 230.441 339.08 230.072C339.165 229.987 339.677 229.675 340.217 229.391C342.919 227.914 347.355 223.484 349.431 220.191C351.109 217.55 352.815 213.631 353.185 211.615C353.27 211.218 353.384 210.706 353.441 210.479C354.266 207.64 354.152 198.724 353.27 197.048C353.128 196.793 353.043 196.565 353.128 196.565C353.384 196.565 351.905 192.533 350.91 190.546C348.72 186.23 344.853 181.857 340.843 179.273C337.288 176.944 337.516 177.257 338.596 176.092C340.246 174.218 341.127 172.94 341.725 171.521C341.895 171.066 342.151 170.726 342.265 170.726C342.379 170.726 342.492 170.584 342.492 170.413C342.492 170.243 342.692 169.703 342.919 169.221C345.45 163.712 346.133 157.578 344.938 150.707C344.369 147.555 341.753 141.847 339.535 138.979C336.634 135.203 332.824 132.051 328.842 130.092C328.131 129.751 327.449 129.438 327.278 129.382C327.136 129.325 326.027 128.956 324.861 128.53C323.695 128.132 322.472 127.735 322.159 127.678C319.088 127.138 317.666 127.025 314.566 127.082C311.78 127.138 310.926 127.082 310.898 126.798C310.87 126.599 310.841 126.343 310.813 126.201C310.784 126.088 310.642 125.435 310.528 124.725C310.016 121.885 308.083 117.427 306.092 114.502C298.926 103.939 286.1 99.112 273.701 102.292C266.848 104.024 260.079 108.852 256.212 114.73C255.473 115.865 254.762 116.746 254.676 116.689C254.563 116.632 254.164 116.462 253.766 116.291C249.302 114.275 241.822 113.679 236.305 114.843L233.519 115.439L231.471 113.338C229.651 111.436 227.262 108.738 226.096 107.262C223.48 103.911 220.266 99.1972 219.044 96.8972C218.674 96.1873 218.276 95.5626 218.19 95.4774C217.735 95.0799 214.181 87.6118 213.1 84.8291C211.707 81.2228 210.882 80.2574 209.005 80.0302C207.413 79.8315 207.071 79.8882 206.247 80.3994Z" fill="black"/>
</svg>
