<?xml version="1.0" standalone="no"?>
<!DOCTYPE svg PUBLIC "-//W3C//DTD SVG 20010904//EN"
 "http://www.w3.org/TR/2001/REC-SVG-20010904/DTD/svg10.dtd">
<svg version="1.0" xmlns="http://www.w3.org/2000/svg"
 width="544.000000pt" height="544.000000pt" viewBox="0 0 544.000000 544.000000"
 preserveAspectRatio="xMidYMid meet">
<metadata>
Created by potrace 1.14, written by Peter Selinger 2001-2017
</metadata>
<g transform="translate(0.000000,544.000000) scale(0.100000,-0.100000)"
fill="#000000" stroke="none">
<path d="M159 5421 c-48 -31 -79 -80 -79 -126 0 -30 46 -175 61 -189 5 -6 9
-16 9 -23 0 -16 106 -239 130 -273 10 -14 18 -28 19 -33 0 -4 22 -43 48 -88
27 -44 54 -92 62 -107 8 -15 20 -31 28 -35 7 -4 13 -12 13 -17 0 -9 123 -187
152 -220 7 -8 30 -36 52 -63 21 -27 46 -57 55 -67 9 -9 40 -43 70 -75 l55 -59
-39 -30 c-22 -17 -70 -62 -107 -99 -159 -161 -261 -364 -294 -583 -15 -96 -10
-280 11 -374 2 -14 7 -34 9 -45 2 -11 9 -33 16 -50 6 -16 12 -32 12 -35 2 -14
14 -43 54 -125 46 -94 104 -177 175 -253 43 -44 43 -45 22 -61 -109 -84 -143
-115 -192 -171 -31 -36 -58 -67 -61 -70 -12 -10 -87 -137 -103 -172 -57 -127
-73 -179 -94 -303 -9 -52 -9 -268 0 -320 28 -163 88 -310 179 -442 68 -96 178
-207 263 -262 22 -14 42 -29 45 -32 6 -8 176 -90 187 -91 4 0 19 -5 33 -10 46
-18 135 -39 185 -46 67 -8 249 -8 305 1 116 17 300 79 341 113 8 8 23 14 31
14 9 0 18 5 20 12 3 7 12 -3 22 -22 29 -60 80 -140 88 -140 4 0 8 -6 8 -13 0
-12 120 -141 181 -193 113 -98 318 -190 489 -219 115 -20 325 -13 432 15 93
24 280 105 312 134 6 6 29 23 51 37 22 15 60 45 85 68 25 22 47 41 50 41 3 0
19 -13 35 -28 56 -52 122 -102 134 -102 6 0 11 -4 11 -8 0 -13 199 -108 265
-127 156 -44 354 -56 495 -29 86 16 233 63 238 75 2 5 10 9 19 9 13 0 70 27
83 40 3 3 21 14 40 24 95 52 251 208 324 324 59 93 119 231 132 302 3 14 7 32
9 40 29 100 25 414 -6 473 -5 9 -8 17 -5 17 9 0 -43 142 -78 212 -77 152 -213
306 -354 397 -125 82 -117 71 -79 112 58 66 89 111 110 161 6 16 15 28 19 28
4 0 8 5 8 11 0 6 7 25 15 42 89 194 113 410 71 652 -20 111 -112 312 -190 413
-102 133 -236 244 -376 313 -25 12 -49 23 -55 25 -5 2 -44 15 -85 30 -41 14
-84 28 -95 30 -108 19 -158 23 -267 21 -98 -2 -128 0 -129 10 -1 7 -2 16 -3
21 -1 4 -6 27 -10 52 -18 100 -86 257 -156 360 -252 372 -703 542 -1139 430
-241 -61 -479 -231 -615 -438 -26 -40 -51 -71 -54 -69 -4 2 -18 8 -32 14 -157
71 -420 92 -614 51 l-98 -21 -72 74 c-64 67 -148 162 -189 214 -92 118 -205
284 -248 365 -13 25 -27 47 -30 50 -16 14 -141 277 -179 375 -49 127 -78 161
-144 169 -56 7 -68 5 -97 -13z"/>
</g>
</svg>
